# Blender v2.78 (sub 0) OBJ File: 'testterrain.blend'
# www.blender.org
mtllib terrain3.mtl
o Cube_Cube.003
v -21.962170 2.415750 66.039383
v -21.962170 4.944600 66.039383
v -21.962170 4.944613 40.984203
v -21.962170 2.415761 40.984203
v -20.470541 4.944613 40.984203
v -20.470541 2.415761 40.984203
v -20.470541 4.944600 66.039383
v -20.470541 2.415750 66.039383
vn -1.0000 0.0000 0.0000
vn 0.0000 0.0000 -1.0000
vn 1.0000 0.0000 0.0000
vn 0.0000 0.0000 1.0000
vn 0.0000 -1.0000 -0.0000
vn 0.0000 1.0000 0.0000
usemtl None.003
s 1
f 1//1 2//1 3//1 4//1
f 4//2 3//2 5//2 6//2
f 6//3 5//3 7//3 8//3
f 8//4 7//4 2//4 1//4
f 4//5 6//5 8//5 1//5
f 5//6 3//6 2//6 7//6
