# Blender v2.78 (sub 0) OBJ File: 'terrain.blend'
# www.blender.org
mtllib terrain.mtl
o Cube
v 2.695468 0.571257 -0.899207
v 2.695468 0.571257 1.622539
v -2.537777 0.571257 1.622539
v -2.537776 0.571257 -0.899208
v 2.695470 4.591913 -0.899207
v 2.695467 4.591913 1.622540
v -2.537777 4.591913 1.622538
v -2.537776 4.591913 -0.899207
v 7.094049 0.571257 -0.899205
v 7.094049 0.571257 1.622541
v 7.094050 4.591913 -0.899204
v 7.094048 4.591913 1.622542
v 10.489803 0.571257 -0.899203
v 10.489803 0.571257 1.622543
v 10.489804 4.591913 -0.899202
v 10.489801 4.591913 1.622544
v 2.695466 0.571255 6.185471
v 2.695464 4.591911 6.185472
v 7.094046 0.571255 6.185474
v 7.094045 4.591911 6.185475
v 2.695464 0.571254 10.550706
v 2.695462 4.591910 10.550707
v 7.094044 0.571254 10.550708
v 7.094043 4.591910 10.550709
v 2.695470 0.571257 -4.358922
v 2.695471 4.591913 -4.358922
v 7.094050 0.571257 -4.358919
v 7.094051 4.591913 -4.358919
v 2.695472 0.571258 -8.506966
v 2.695473 4.591914 -8.506965
v 7.094052 0.571258 -8.506963
v 7.094053 4.591914 -8.506962
v -21.819666 0.571257 1.622539
v -21.819664 0.571257 -0.899208
v -21.819666 4.591913 -0.899207
v -21.819666 4.591913 1.622538
v -11.229886 0.571257 1.622539
v -11.229884 0.571257 -0.899208
v -11.229886 4.591913 1.622538
v -11.229886 4.591913 -0.899207
v -6.706501 4.591913 -0.899207
v -6.706502 4.591913 1.622538
v -15.767337 4.591909 1.622532
v -6.706501 0.571257 -0.899208
v -15.934278 4.591913 1.622538
v -15.934278 4.591913 -0.899207
v -6.706502 0.571257 1.622539
v -15.934277 0.571257 -0.899208
v -15.934278 0.571257 1.622539
v 15.749541 0.571257 -0.899200
v 15.749541 0.571257 1.622546
v 15.749544 4.591913 -0.899200
v 15.749541 4.591913 1.622547
v 21.330431 0.571255 -0.899198
v 21.330431 0.571255 1.622549
v 21.330435 4.591911 -0.899197
v 21.330431 4.591911 1.622549
v 27.722197 0.571254 -0.899194
v 27.722197 0.571254 1.622552
v 27.722198 4.591910 -0.899194
v 27.722197 4.591910 1.622553
v 33.831585 0.571252 -0.899191
v 33.831585 0.571252 1.622555
v 33.831589 4.591908 -0.899191
v 33.831585 4.591908 1.622556
v 2.695462 0.571253 15.742778
v 2.695460 4.591909 15.742781
v 7.094042 0.571253 15.742781
v 7.094041 4.591909 15.742783
v 2.695459 0.571249 21.435434
v 2.695457 4.591906 21.435440
v 7.094039 0.571249 21.435440
v 7.094038 4.591906 21.435440
v 2.695457 0.571245 26.786051
v 2.695455 4.591902 26.786057
v 7.094036 0.571245 26.786057
v 7.094035 4.591902 26.786057
v 2.695475 0.571260 -15.072841
v 2.695477 4.591916 -15.072839
v 7.094055 0.571260 -15.072837
v 7.094056 4.591916 -15.072836
v 2.695478 0.571263 -21.568062
v 2.695479 4.591919 -21.568060
v 7.094058 0.571263 -21.568056
v 7.094059 4.591919 -21.568056
v 2.695486 0.571265 -29.738558
v 2.695487 4.591921 -29.738556
v 7.094066 0.571265 -29.738554
v 7.094067 4.591921 -29.738554
v -15.934278 4.591913 -6.037051
v -21.819666 4.591913 -6.037051
v -21.819664 0.571257 -6.037052
v -15.934277 0.571257 -6.037052
v -15.934278 4.591913 -6.037051
v -21.819666 4.591913 -6.037051
v -21.819664 0.571257 -6.037052
v -15.934277 0.571257 -6.037052
v -15.934278 4.591913 -13.680067
v -21.819666 4.591913 -13.680067
v -21.819664 0.571257 -13.680068
v -15.934277 0.571257 -13.680068
v -15.934278 4.591913 -19.230431
v -21.819666 4.591913 -19.230431
v -21.819664 0.571257 -19.230434
v -15.934277 0.571257 -19.230434
v -15.934278 4.591913 -25.418993
v -21.819666 4.591913 -25.418993
v -21.819664 0.571257 -25.418993
v -15.934277 0.571257 -25.418993
v -15.934278 4.591913 -31.053434
v -21.819666 4.591913 -31.053434
v -21.819664 0.571257 -31.053434
v -15.934277 0.571257 -31.053434
vn 0.0000 -1.0000 -0.0000
vn 0.0000 1.0000 0.0000
vn -0.0000 -0.0000 1.0000
vn 0.0000 0.0000 -1.0000
vn 1.0000 0.0000 0.0000
vn -1.0000 -0.0000 -0.0000
usemtl Material
s off
f 1//1 2//1 3//1 4//1
f 5//2 8//2 7//2 6//2
f 5//2 6//2 12//2 11//2
f 2//3 6//3 7//3 3//3
f 39//2 40//2 46//2 45//2
f 5//4 1//4 4//4 8//4
f 12//3 10//3 14//3 16//3
f 2//1 10//1 19//1 17//1
f 9//1 1//1 25//1 27//1
f 2//1 1//1 9//1 10//1
f 15//2 16//2 53//2 52//2
f 10//1 9//1 13//1 14//1
f 11//2 12//2 16//2 15//2
f 9//4 11//4 15//4 13//4
f 17//1 19//1 23//1 21//1
f 12//2 6//2 18//2 20//2
f 10//5 12//5 20//5 19//5
f 6//6 2//6 17//6 18//6
f 21//1 23//1 68//1 66//1
f 19//5 20//5 24//5 23//5
f 20//2 18//2 22//2 24//2
f 18//6 17//6 21//6 22//6
f 27//1 25//1 29//1 31//1
f 5//2 11//2 28//2 26//2
f 1//6 5//6 26//6 25//6
f 11//5 9//5 27//5 28//5
f 30//2 32//2 81//2 79//2
f 28//5 27//5 31//5 32//5
f 26//2 28//2 32//2 30//2
f 25//6 26//6 30//6 29//6
f 41//4 44//4 38//4 40//4
f 40//4 38//4 48//4 46//4
f 37//3 39//3 45//3 49//3
f 49//3 45//3 36//3 33//3
f 8//4 4//4 44//4 41//4
f 48//1 49//1 33//1 34//1
f 44//1 47//1 37//1 38//1
f 45//2 46//2 35//2 36//2
f 3//3 7//3 42//3 47//3
f 47//3 42//3 39//3 37//3
f 7//2 8//2 41//2 42//2
f 4//1 3//1 47//1 44//1
f 38//1 37//1 49//1 48//1
f 42//2 41//2 40//2 39//2
f 53//3 51//3 55//3 57//3
f 13//4 15//4 52//4 50//4
f 16//3 14//3 51//3 53//3
f 14//1 13//1 50//1 51//1
f 56//2 57//2 61//2 60//2
f 51//1 50//1 54//1 55//1
f 52//2 53//2 57//2 56//2
f 50//4 52//4 56//4 54//4
f 58//4 60//4 64//4 62//4
f 54//4 56//4 60//4 58//4
f 57//3 55//3 59//3 61//3
f 55//1 54//1 58//1 59//1
f 62//5 64//5 65//5 63//5
f 61//3 59//3 63//3 65//3
f 59//1 58//1 62//1 63//1
f 60//2 61//2 65//2 64//2
f 66//1 68//1 72//1 70//1
f 23//5 24//5 69//5 68//5
f 24//2 22//2 67//2 69//2
f 22//6 21//6 66//6 67//6
f 73//2 71//2 75//2 77//2
f 68//5 69//5 73//5 72//5
f 69//2 67//2 71//2 73//2
f 67//6 66//6 70//6 71//6
f 75//3 74//3 76//3 77//3
f 71//6 70//6 74//6 75//6
f 70//1 72//1 76//1 74//1
f 72//5 73//5 77//5 76//5
f 80//1 78//1 82//1 84//1
f 29//6 30//6 79//6 78//6
f 31//1 29//1 78//1 80//1
f 32//5 31//5 80//5 81//5
f 83//2 85//2 89//2 87//2
f 81//5 80//5 84//5 85//5
f 79//2 81//2 85//2 83//2
f 78//6 79//6 83//6 82//6
f 86//4 87//4 89//4 88//4
f 82//6 83//6 87//6 86//6
f 84//1 82//1 86//1 88//1
f 85//5 84//5 88//5 89//5
f 48//1 34//1 92//1 93//1
f 100//6 99//6 103//6 104//6
f 34//6 35//6 91//6 92//6
f 46//5 48//5 93//5 90//5
f 35//2 46//2 90//2 91//2
f 94//3 95//3 96//3 97//3
f 96//6 95//6 99//6 100//6
f 95//2 94//2 98//2 99//2
f 94//5 97//5 101//5 98//5
f 97//1 96//1 100//1 101//1
f 102//5 105//5 109//5 106//5
f 99//2 98//2 102//2 103//2
f 98//5 101//5 105//5 102//5
f 101//1 100//1 104//1 105//1
f 108//6 107//6 111//6 112//6
f 105//1 104//1 108//1 109//1
f 104//6 103//6 107//6 108//6
f 103//2 102//2 106//2 107//2
f 110//4 113//4 112//4 111//4
f 107//2 106//2 110//2 111//2
f 106//5 109//5 113//5 110//5
f 109//1 108//1 112//1 113//1
